<svg width="125" height="115" xmlns="http://www.w3.org/2000/svg" preserveAspectRatio="xMidYMid meet">
 <defs>
  <linearGradient y2="0.67955" x2="0.973868" y1="0.36457" x1="0.039808" id="SVGID_1_">
   <stop stop-color="#7D7D7D" offset="0"/>
   <stop stop-color="#BFBFBF" offset="1"/>
  </linearGradient>
  <linearGradient y2="0.649" x2="0.93492" y1="0.348615" x1="0.066059" id="SVGID_2_">
   <stop stop-color="#961B20" offset="0"/>
   <stop stop-color="#B62228" offset="1"/>
  </linearGradient>
 </defs>
 <g>
  <title>background</title>
  <rect fill="none" id="canvas_background" height="117" width="127" y="-1" x="-1"/>
 </g>
 <g>
  <title>Layer 1</title>
  <g class="logo__item" id="logo__item--logo_0">
   <g id="svg_3" transform="translate(-3.0632500648498535,-9.5) scale(1.3123931884765625) " class="logo__item__inner">
    <g id="svg_4">
     <g id="svg_5">
      <g id="svg_6">
       <path id="svg_7" d="m69.648967,41.532967c-3.679,0.452 -7.718,0.113 -10.39,-2.434c-2.962,-2.826 -3.46,-7.258 -3.394,-11.097c0.058,-3.683 0.667,-7.337 2.26,-10.779c1.57,-3.401 4.835,-6.659 8.325,-3.303c-2.882,-3.496 -8.023,-3.645 -12.43,-3.284c-3.206,0.265 -6.54,0.919 -7.826,4.096c-2.22,5.497 1.563,11.654 -1.055,17.063c-1.784,3.673 -4.828,6.868 -9.223,7.428c-4.571,0.585 -9.213,-0.415 -13.795,-0.229c-5.088,0.206 -10.126,1.635 -13.161,5.843c-2.757,3.821 -3.578,8.137 -2.67,12.48c0.015,0.061 0.12,0.363 0.101,0.447c1.486,-6.076 4.25,-13.36 11.917,-13.823c9.859,-0.597 16.761,6.327 19.354,14.538c1.995,6.299 0.553,12.76 -4.631,17.548c-7.014,6.479 -15.349,3.082 -20.896,-2.65c-0.792,-0.821 -1.546,-1.676 -2.264,-2.556c4.298,10.381 18.205,25.629 31.551,17.894c3.235,-2.298 5.655,-4.71 7.674,-8.113c1.63,-2.742 2.855,-5.701 4.137,-8.588c1.554,-3.482 3.081,-6.982 4.86,-10.381c0.774,-1.472 1.594,-2.936 2.539,-4.324c0.581,-0.851 1.449,-2.377 2.473,-2.823c-0.324,0.169 0.343,0.174 0.395,0.166c1.018,-0.213 2.039,-0.408 3.063,-0.588c1.823,-0.317 3.658,-0.583 5.494,-0.761c2.836,-0.277 5.726,-0.377 8.528,0.025c3.423,0.487 6.89,1.896 8.162,5.103c1.289,3.263 0.181,7.085 -1.138,10.261c-2.025,4.863 -5.097,9.371 -8.351,13.612c1.07,0.183 3.146,-2.173 3.772,-2.793c1.576,-1.571 3.017,-3.258 4.365,-4.997c3.363,-4.342 6.333,-9.183 7.824,-14.347c1.599,-5.534 1.43,-12.512 -3.935,-15.923c-6.151,-3.926 -14.431,-3.587 -21.635,-2.711c-10.285,1.258 7.29,-0.889 0,0zm-21.111,38.576c-0.123,-0.141 -0.033,-0.305 0.261,-0.494c-0.088,0.162 -0.177,0.331 -0.261,0.494c0,0 0.084,-0.163 0,0z" fill="url(#SVGID_1_)"/>
      </g>
     </g>
     <path id="svg_8" d="m36.195967,32.322967c3.505,-2.684 6.778,-7.78 4.504,-11.904c-2.675,-5.158 -10.54,-3.382 -14.556,-0.546c-3.898,2.749 -7.791,8.578 -4.657,12.882c3.357,4.608 10.756,2.597 14.709,-0.432c4.391,-3.364 -3.981,3.049 0,0z" fill="url(#SVGID_2_)"/>
    </g>
   </g>
  </g>
 </g>
</svg>